<svg width="100%" height="100%" viewBox="0 0 1440 800" fill="none" xmlns="http://www.w3.org/2000/svg">
<g clip-path="url(#clip0_314_13161)">
<rect width="100%" height="100%" fill="#FFE366"/>
<path d="M365.59 707.911L415.788 509.438L217.315 459.24L167.117 657.713L365.59 707.911Z" fill="#FFEB91"/>
<path d="M262.502 779.567L51.9998 726.327L105.24 515.825L315.742 569.066L262.502 779.567ZM66.641 717.232L253.515 764.496L300.779 577.622L113.905 530.358L66.641 717.232Z" fill="#FFEB91"/>
<path d="M189.5 109C113.834 109 52 170.563 52 246.5C52 322.166 113.563 384 189.5 384C265.437 384 327 322.437 327 246.5C326.729 170.834 265.166 109 189.5 109ZM189.5 139.104C248.893 139.104 296.896 187.378 296.896 246.5C296.896 305.893 248.622 353.896 189.5 353.896C130.107 353.896 82.1035 305.622 82.1035 246.5C81.8323 187.107 130.107 139.104 189.5 139.104Z" fill="#FFEB91"/>
<path d="M677.186 635.704C664.01 580.454 608.637 546.677 553.704 559.778C498.454 572.954 464.678 628.327 477.778 683.26C490.879 738.192 546.328 772.286 601.26 759.186C656.192 746.085 690.362 690.954 677.186 635.704ZM527.037 704.064C519.389 671.994 539.293 640.064 571.045 632.492C602.798 624.919 635.045 644.747 642.618 676.5C650.266 708.57 630.362 740.5 598.61 748.072C566.857 755.645 534.686 736.135 527.037 704.064Z" fill="#FFEB91"/>
<path d="M1015.41 724.704C1015.41 767.136 981.135 801.408 938.703 801.408C896.271 801.408 862 767.136 862 724.704C862 682.272 896.271 648 938.703 648C982.767 649.632 1015.41 682.272 1015.41 724.704Z" stroke="#FFEB91" stroke-width="2.2857" stroke-miterlimit="10" stroke-linecap="round" stroke-linejoin="round"/>
<path d="M1066 775.296C1066 817.728 1031.73 852.001 989.297 852.001C946.865 852.001 912.593 817.728 912.593 775.296C912.593 732.864 946.865 698.593 989.297 698.593C1031.73 698.593 1066 732.864 1066 775.296Z" fill="#FFEB91"/>
<path d="M1353.89 563L1458 835L1139 641.753L1353.89 563Z" fill="#FFEB91"/>
<path d="M543.893 246.94L490.524 258.48L534.118 460.095L587.487 448.556L543.893 246.94Z" fill="#FFEB91"/>
<path d="M645.189 358.524L633.649 305.155L432.034 348.749L443.574 402.118L645.189 358.524Z" fill="#FFEB91"/>
<path d="M1208.37 487.26L1015 462.081L1133.51 307.044L1208.37 487.26ZM1031.17 455.568L1194.4 476.823L1131.18 324.936L1031.17 455.568Z" fill="#FFEB91"/>
<path d="M1142.76 233.549L1033.5 376.383L1211.8 399.6L1142.76 233.549Z" fill="#FFEB91"/>
<path d="M526.534 -21.8429C563.095 14.3665 563.095 73.4266 526.534 109.636L394 -21.8429C430.561 -58.0524 489.973 -58.0524 526.534 -21.8429Z" fill="#FFEB91"/>
<path d="M454.468 170.806C417.907 134.596 417.907 75.5361 454.468 39.3267L587.001 170.806C550.792 207.015 491.38 207.015 454.468 170.806Z" stroke="#FFEB91" stroke-width="2.5152" stroke-miterlimit="10"/>
<path d="M1250.67 294.139L1209 62.6684L1440.47 21L1482.14 252.471L1250.67 294.139ZM1226.21 74.6307L1262.63 276.924L1464.92 240.508L1428.51 38.2146L1226.21 74.6307Z" fill="#FFEB91"/>
<path d="M1412.13 203.825L1391.74 90.521L1278.43 110.917L1298.83 224.221L1412.13 203.825Z" fill="#FFEB91"/>
<path d="M897.353 572.607L804.443 592.925C801.888 593.484 799.664 590.959 800.452 588.445L829.152 497.863L857.852 407.28C858.641 404.766 861.834 404.068 863.6 406.023L927.49 476.357L991.381 546.691C993.147 548.647 992.179 551.87 989.625 552.428L897.353 572.607Z" fill="#FFEB91"/>
<path d="M852.633 609.82L759.723 630.139C757.169 630.697 754.944 628.173 755.732 625.659L784.432 535.076L813.133 444.493C813.921 441.979 817.114 441.281 818.88 443.237L882.77 513.571L946.661 583.905C948.427 585.861 947.459 589.083 944.905 589.642L852.633 609.82Z" stroke="#FFEB91" stroke-width="1.4268" stroke-miterlimit="10"/>
<path d="M700.895 232.221L783.658 375.57L980.763 261.772L923.001 161.725C909.194 137.809 878.614 129.615 854.698 143.423L700.895 232.221Z" fill="#FFEB91"/>
<path d="M845.815 -57L701 93.9804L726.185 118L871 -32.9804L845.815 -57ZM715.024 93.6944L846.101 -42.9886L856.976 -32.6944L725.899 103.989L715.024 93.6944Z" fill="#FFED9D"/>
</g>
<defs>
<clipPath id="clip0_314_13161">
<rect width="100%" height="100%" fill="white"/>
</clipPath>
</defs>
</svg>
