<svg width="100%" height="100%" viewBox="55 110 166 55" fill="none" xmlns="http://www.w3.org/2000/svg">
<g transform="rotate(90 138.5 138.5)">
<path d="M133.4 214.74L133.4 210.307C133.4 207.928 134.921 206.693 136.533 206.693C140.108 206.693 142.5 210.788 142.5 213.999L142.5 214.74L142.279 214.74C142.279 214.311 141.915 213.921 141.512 213.921L134.765 213.921C134.362 213.921 133.621 214.311 133.621 214.74L133.4 214.74ZM141.369 211.776C140.797 210.333 139.107 208.76 136.676 208.76C135.142 208.76 134.037 209.787 134.037 210.84L134.037 211.386C134.037 211.867 134.401 212.192 134.895 212.192L141.031 212.192C141.408 212.192 141.447 211.984 141.369 211.776ZM135.467 201.37C135.467 200.512 136.026 200.213 136.637 200.213C137.144 200.213 137.599 200.603 137.599 200.915C137.599 201.097 136.78 201.37 136.78 202.28C136.78 202.852 137.235 203.281 138.353 203.294L141.083 203.294C141.551 203.294 142.253 202.891 142.253 202.449L142.5 202.449L142.5 205.816L142.253 205.816C142.253 205.374 141.551 204.971 141.083 204.971L136.962 204.971C136.52 204.971 136.078 205.374 136.078 205.816L135.831 205.816L135.545 203.294L136.884 203.294C136.169 202.67 135.467 201.929 135.467 201.37ZM142.552 198.384C142.552 198.891 142.149 199.281 141.655 199.281C141.161 199.281 140.745 198.891 140.745 198.384C140.745 197.89 141.161 197.487 141.655 197.487C142.149 197.487 142.552 197.89 142.552 198.384ZM133.4 192.948L133.4 188.515C133.4 186.136 134.921 184.901 136.533 184.901C140.108 184.901 142.5 188.996 142.5 192.207L142.5 192.948L142.279 192.948C142.279 192.519 141.915 192.129 141.512 192.129L134.765 192.129C134.362 192.129 133.621 192.519 133.621 192.948L133.4 192.948ZM141.369 189.984C140.797 188.541 139.107 186.968 136.676 186.968C135.142 186.968 134.037 187.995 134.037 189.048L134.037 189.594C134.037 190.075 134.401 190.4 134.895 190.4L141.031 190.4C141.408 190.4 141.447 190.192 141.369 189.984ZM140.901 177.91L141.213 177.637C141.59 177.936 142.578 178.898 142.578 180.341C142.578 182.577 140.966 184.033 138.977 184.033C137.066 184.033 135.467 182.772 135.467 180.731C135.467 178.807 136.741 177.585 138.145 177.585C138.743 177.585 139.276 178.014 139.276 178.69L139.302 182.018C140.81 181.81 141.603 180.627 141.603 179.73C141.603 179.015 141.278 178.326 140.901 177.91ZM136.208 180.705C136.208 181.537 137.456 182.174 138.522 182.122L138.47 179.288C136.975 179.288 136.208 179.834 136.208 180.705ZM135.467 172.242C135.467 171.384 136.026 171.085 136.637 171.085C137.144 171.085 137.599 171.475 137.599 171.787C137.599 171.969 136.78 172.242 136.78 173.152C136.78 173.724 137.235 174.153 138.353 174.166L141.083 174.166C141.551 174.166 142.253 173.763 142.253 173.321L142.5 173.321L142.5 176.688L142.253 176.688C142.253 176.246 141.551 175.843 141.083 175.843L136.962 175.843C136.52 175.843 136.078 176.246 136.078 176.688L135.831 176.688L135.545 174.166L136.884 174.166C136.169 173.542 135.467 172.801 135.467 172.242ZM140.901 164.227L141.213 163.954C141.59 164.253 142.578 165.215 142.578 166.658C142.578 168.894 140.966 170.35 138.977 170.35C137.066 170.35 135.467 169.089 135.467 167.048C135.467 165.124 136.741 163.902 138.145 163.902C138.743 163.902 139.276 164.331 139.276 165.007L139.302 168.335C140.81 168.127 141.603 166.944 141.603 166.047C141.603 165.332 141.278 164.643 140.901 164.227ZM136.208 167.022C136.208 167.854 137.456 168.491 138.522 168.439L138.47 165.605C136.975 165.605 136.208 166.151 136.208 167.022ZM140.875 156.661C141.85 156.375 142.253 155.959 142.253 155.439L142.5 155.439L142.5 158.702L142.253 158.702C142.253 157.857 139.016 158.793 139.016 160.158C139.159 160.288 139.445 160.548 139.445 160.548L141.07 160.548C141.538 160.548 142.253 160.158 142.253 159.716L142.5 159.716L142.5 163.096L142.253 163.096C142.253 162.654 141.59 162.251 141.07 162.251L134.193 162.251C133.751 162.251 133.27 162.654 133.27 163.096L133.023 163.096L132.451 160.548L138.522 160.548L136.949 159.144C136.273 158.533 135.805 158.286 135.805 158.728L135.545 158.728L135.545 156.193L135.805 156.193C135.805 156.479 135.74 157.142 137.794 159.092C138.015 157.909 139.068 157.194 140.875 156.661ZM134.167 146.305L141.096 144.004C141.538 143.861 142.279 143.354 142.279 142.925L142.5 142.925L142.5 146.526L142.279 146.526C142.279 146.084 141.681 145.824 141.2 145.967L140.238 146.266L140.238 149.75L141.174 150.049C141.668 150.205 142.279 149.932 142.279 149.49L142.5 149.49L142.5 151.817L142.279 151.817C142.279 151.401 141.551 150.881 141.109 150.751L134.297 148.255C133.946 148.411 133.647 148.593 133.647 148.918L133.4 148.918L133.4 147.436C133.4 146.721 133.855 146.409 134.167 146.305ZM139.666 149.607L139.666 146.448L135.376 147.917C135.181 147.956 135.22 148.138 135.363 148.177L139.666 149.607ZM136.975 142.305C136.351 142.305 136.078 142.461 136.078 142.89L135.831 142.89L135.545 140.628L140.043 140.628C141.694 140.628 141.746 139.991 141.746 139.718C141.746 139.094 141.057 138.275 140.576 137.95L136.975 137.95C136.39 137.95 136.078 138.093 136.078 138.535L135.831 138.535L135.545 136.26L141.226 136.26C141.746 136.26 142.253 135.857 142.253 135.415L142.5 135.415L142.5 137.261C142.5 137.729 142.227 137.95 141.824 137.95L141.538 137.95C141.837 138.275 142.565 139.224 142.565 140.186C142.565 141.473 141.889 142.305 140.043 142.305L136.975 142.305ZM136.949 132.623C138.041 132.623 138.392 129.1 140.446 129.1C141.746 129.1 142.591 130.127 142.591 131.869C142.591 133.52 141.59 134.456 140.836 134.456C139.952 134.456 139.614 133.468 139.614 133.468C140.446 133.468 141.72 132.935 141.72 131.739C141.72 131.31 141.421 130.764 140.888 130.764C139.627 130.764 139.679 134.105 137.235 134.105C136.169 134.105 135.428 132.922 135.428 131.661C135.428 129.711 136.728 129.1 137.3 129.581C137.703 129.919 137.469 130.569 137.469 130.569C137.235 130.569 136.156 130.764 136.156 131.713C136.156 132.155 136.442 132.623 136.949 132.623ZM141.161 124.769C141.083 124.704 140.901 124.509 140.901 124.288C140.901 123.95 141.109 123.755 141.538 123.755C142.136 123.755 142.565 124.691 142.565 125.328C142.565 126.758 141.928 127.525 140.394 127.525L136.312 127.525L136.312 128.201L135.675 128.201C135.675 127.317 134.986 126.966 133.79 126.966L132.737 125.874L135.545 125.874L135.545 124.015L136.312 124.158L136.312 125.848L140.355 125.848C141.473 125.848 141.785 125.64 141.785 125.237C141.785 124.873 141.447 124.769 141.161 124.769ZM135.415 120.489L141.07 120.489C141.551 120.489 142.253 120.125 142.253 119.683L142.5 119.683L142.5 123.011L142.253 123.011C142.253 122.569 141.538 122.192 141.07 122.192L137.001 122.192C136.559 122.192 136.104 122.608 136.104 123.05L135.857 123.05L135.415 120.489ZM134.791 121.399C134.791 121.932 134.336 122.361 133.803 122.361C133.244 122.361 132.802 121.932 132.802 121.399C132.802 120.84 133.244 120.411 133.803 120.411C134.336 120.411 134.791 120.84 134.791 121.399ZM137.911 112.202L141.083 112.202C141.577 112.202 142.253 111.786 142.253 111.357L142.5 111.357L142.5 114.724L142.253 114.724C142.253 114.282 141.577 113.879 141.083 113.879L137.911 113.879C136.572 113.879 136.455 114.542 136.455 114.841C136.455 115.374 137.313 116.167 137.872 116.505L141.083 116.505C141.616 116.505 142.253 116.102 142.253 115.66L142.5 115.66L142.5 119.04L142.253 119.04C142.253 118.598 141.603 118.195 141.083 118.195L137.014 118.195C136.572 118.195 136.091 118.624 136.091 119.066L135.844 119.066L135.545 116.635L136.936 116.505C136.364 116.076 135.454 115.075 135.454 114.139C135.454 112.878 136.013 112.202 137.911 112.202Z" fill="#311B4D"/>
<path fill-rule="evenodd" clip-rule="evenodd" d="M148 91.0527L128.69 86.1095L128 88.8039L147.31 93.7471L148 91.0527ZM131.253 96.5221L136.815 103.475C137.279 104.078 138.159 104.17 138.762 103.707C138.822 103.677 138.863 103.628 138.909 103.572C138.934 103.541 138.961 103.508 138.994 103.475L144.556 96.5221L142.378 94.7606L137.881 100.369L133.432 94.8068L131.253 96.5221ZM131.253 82.7554L133.432 84.5166L137.928 78.9077L142.424 84.5166L144.603 82.7551L139.04 75.8021C138.577 75.1994 137.696 75.1069 137.094 75.5702C137.034 75.6001 136.993 75.6494 136.947 75.7055L136.947 75.7055C136.922 75.7363 136.895 75.7692 136.862 75.8021L131.253 82.7554Z" fill="#311B4D"/>
</g>
</svg>